<?xml version="1.0" encoding="UTF-8" standalone="no"?>
<!-- Created with Inkscape (http://www.inkscape.org/) -->

<svg
   xmlns:dc="http://purl.org/dc/elements/1.1/"
   xmlns:cc="http://creativecommons.org/ns#"
   xmlns:rdf="http://www.w3.org/1999/02/22-rdf-syntax-ns#"
   xmlns:svg="http://www.w3.org/2000/svg"
   xmlns="http://www.w3.org/2000/svg"
   xmlns:sodipodi="http://sodipodi.sourceforge.net/DTD/sodipodi-0.dtd"
   xmlns:inkscape="http://www.inkscape.org/namespaces/inkscape"
   width="744.09448819"
   height="1052.3622047"
   id="svg2"
   version="1.1"
   inkscape:version="0.48.3.1 r9886"
   sodipodi:docname="PyHUG.svg">
  <defs
     id="defs4" />
  <sodipodi:namedview
     id="base"
     pagecolor="#ffffff"
     bordercolor="#666666"
     borderopacity="1.0"
     inkscape:pageopacity="0.0"
     inkscape:pageshadow="2"
     inkscape:zoom="0.175"
     inkscape:cx="247.26625"
     inkscape:cy="391.72525"
     inkscape:document-units="px"
     inkscape:current-layer="layer1"
     showgrid="false"
     inkscape:window-width="1004"
     inkscape:window-height="663"
     inkscape:window-x="530"
     inkscape:window-y="79"
     inkscape:window-maximized="0" />
  <metadata
     id="metadata7">
    <rdf:RDF>
      <cc:Work
         rdf:about="">
        <dc:format>image/svg+xml</dc:format>
        <dc:type
           rdf:resource="http://purl.org/dc/dcmitype/StillImage" />
        <dc:title />
      </cc:Work>
    </rdf:RDF>
  </metadata>
  <g
     inkscape:label="Layer 1"
     inkscape:groupmode="layer"
     id="layer1">
    <g
       id="g3002"
       transform="matrix(1.9674981,0,0,1.9674981,-363.13573,-387.81814)">
      <path
         style="fill:#fce3a3"
         d="m 360.10356,644.59182 c -54.72489,-6.36014 -101.15405,-38.96631 -126.62498,-88.9259 -3.32751,-6.52669 -6.05001,-12.35076 -6.05001,-12.94238 0,-2.01819 2.70959,-1.07763 11.6065,4.02885 10.0626,5.77555 12.94164,7.86741 27.6961,20.12361 12.23174,10.16062 39.77818,27.03178 48.6974,29.82533 1.925,0.60292 5.75,1.95031 8.5,2.99422 13.33943,5.06365 50.4398,7.47075 68.11901,4.41961 53.23581,-9.18763 93.66065,-49.61247 102.84828,-102.84828 5.80077,-33.61135 -3.37965,-68.76773 -24.40903,-93.47434 -4.35664,-5.11844 -17.09333,-16.44294 -17.75228,-15.78398 -0.59367,0.59366 2.67919,6.31591 4.61374,8.06666 2.64333,2.39218 3.54732,8.59685 1.93469,13.27898 -1.89046,5.48876 -9.35048,16.82934 -15.78534,23.99658 -11.93936,13.29822 -13.38412,15.59522 -17.0601,27.12355 -1.18742,3.72389 -1.17966,4.45296 0.0557,5.23469 0.78942,0.49952 7.187,0.91512 14.21685,0.92354 10.25249,0.0123 13.99785,0.42505 18.92861,2.08611 11.65169,3.92517 15.56108,6.82802 22.66463,16.82924 3.70474,5.21597 3.92046,8.52563 1.0503,16.11408 -1.1412,3.01723 -2.43834,6.64858 -2.88252,8.06965 -0.96641,3.09181 -5.52189,10.4764 -7.04257,11.41623 -0.59457,0.36747 -2.23276,2.49257 -3.64042,4.72245 -7.84616,12.42911 -36.42769,45.66771 -43.35958,50.42457 -1.925,1.32099 -5.3,3.75088 -7.5,5.39976 -8.16528,6.11981 -21.28704,11.91117 -27.05,11.93867 -1.6775,0.008 -3.4775,0.41846 -4,0.91212 -0.5225,0.49367 -2.75,1.10941 -4.95,1.36832 -2.2,0.25891 -7.68529,1.26359 -12.18953,2.23262 -4.50423,0.96903 -8.92499,1.47965 -9.8239,1.13471 -2.99737,-1.1502 -1.05781,-3.75565 4.08992,-5.49406 2.79208,-0.94289 7.67644,-3.49743 10.85415,-5.67676 3.17771,-2.17932 6.69987,-4.48834 7.82703,-5.13115 3.86563,-2.20456 25.88563,-24.83015 29.5194,-30.33125 1.99818,-3.025 5.50595,-7.61963 7.79505,-10.21029 2.2891,-2.59066 4.41308,-5.96566 4.71996,-7.5 0.30687,-1.53434 1.6042,-4.36471 2.88294,-6.28971 1.98078,-2.98184 4.5324,-10.02442 8.90241,-24.571 1.36489,-4.54338 1.15237,-15.01088 -0.32743,-16.12643 -0.6875,-0.51827 -3.18906,-1.55417 -5.55903,-2.30199 -3.40593,-1.0747 -4.99269,-1.11245 -7.571,-0.18012 -1.79405,0.64875 -4.32304,1.17954 -5.61994,1.17954 -1.2969,0 -3.83615,0.5345 -5.64276,1.18778 -2.8609,1.03452 -3.56073,0.93804 -5.42338,-0.74764 -3.73159,-3.37704 -4.86392,-6.89059 -5.02059,-15.57855 -0.12249,-6.79265 0.34059,-9.69775 2.46797,-15.48258 1.44032,-3.91654 2.61876,-8.08514 2.61876,-9.26356 0,-1.17843 0.40614,-2.92398 0.90254,-3.87902 0.49639,-0.95504 1.44912,-3.76143 2.11717,-6.23643 1.0955,-4.05865 2.37307,-8.48725 5.0689,-17.571 0.50126,-1.68905 0.91139,-3.9454 0.91139,-5.01411 0,-1.06872 0.9,-4.40542 2,-7.41489 2.79119,-7.63636 2.62117,-11.36623 -0.63486,-13.92742 -3.62953,-2.85499 -7.23947,-2.60191 -14.96728,1.0493 -4.7323,2.23591 -8.46514,5.07386 -13.15326,10 -3.60018,3.78297 -7.04052,6.88097 -7.64519,6.88444 -0.60468,0.003 -1.87673,1.24098 -2.82679,2.75 -0.95006,1.50903 -3.29672,4.76868 -5.21481,7.24368 -1.91809,2.475 -4.20363,5.90788 -5.07897,7.62862 -0.87533,1.72073 -2.69117,4.16167 -4.03518,5.42431 -1.34401,1.26263 -2.44366,2.74432 -2.44366,3.29264 0,0.54832 -0.62861,1.70738 -1.39691,2.57569 -1.95442,2.20883 -11.60309,21.00706 -11.60309,22.60599 0,0.72291 -1.575,5.04886 -3.5,9.61321 -1.925,4.56435 -3.5,9.10489 -3.5,10.09008 0,0.98519 -0.83763,3.69885 -1.8614,6.03036 -2.75689,6.27846 -5.20245,18.74823 -7.27499,37.09479 -0.50601,4.47937 -1.31767,10.84431 -1.80367,14.14431 -0.48601,3.3 -1.20498,8.74817 -1.59772,12.10706 -0.66609,5.69667 -1.03279,6.38158 -5.45698,10.19249 -4.50397,3.87963 -5.11477,4.10094 -12.12408,4.39295 l -7.38116,0.3075 -2.20878,-4.5 c -1.94596,-3.96455 -2.21369,-6.14082 -2.25,-18.28984 -0.0355,-11.86833 0.23747,-14.3361 1.95878,-17.71016 1.1,-2.15618 2,-5.73825 2,-7.96016 l 0,-4.03984 -4.03324,0 c -2.36665,0 -5.98229,1.02819 -8.75,2.48825 -7.06355,3.72627 -18.22262,13.42328 -22.52161,19.57082 -4.20063,6.00689 -6.2148,7.36477 -12.30041,8.29247 -3.19177,0.48655 -4.44641,0.23892 -5.63837,-1.11287 -2.44889,-2.77726 -6.75637,-15.95919 -6.75637,-20.67614 0,-4.39027 2.14172,-10.84397 4.50085,-13.56253 0.71593,-0.825 3.40808,-5.55 5.98256,-10.5 2.57448,-4.95 5.22582,-9.675 5.89186,-10.5 0.66605,-0.825 1.86658,-2.84553 2.66786,-4.49008 0.80128,-1.64454 3.36937,-5.81141 5.70687,-9.25971 2.3375,-3.4483 4.25,-6.51422 4.25,-6.81314 0,-0.65185 6.70325,-10.74962 14.89451,-22.43707 3.27652,-4.675 7.98968,-11.45626 10.4737,-15.06946 5.59274,-8.13508 12.69141,-14.79246 16.6083,-15.57584 1.66837,-0.33368 3.22529,-1.41516 3.56128,-2.47378 0.92191,-2.90468 2.40532,-2.24486 4.20205,1.86908 3.07078,7.0311 0.98726,19.96413 -4.52018,28.05805 -1.38168,2.03057 -7.22345,13.14195 -12.98171,24.69195 -5.75825,11.55 -11.32558,22.20591 -12.37185,23.67979 -2.32185,3.27082 -0.96885,4.51962 3.07981,2.84261 2.84263,-1.17745 16.86826,-0.90283 24.07358,0.47136 3.3485,0.63862 3.63553,0.46479 5.90757,-3.57777 1.31344,-2.33696 4.05678,-6.76158 6.09631,-9.8325 2.03952,-3.07092 6.01416,-10.08349 8.83253,-15.58349 6.38658,-12.4633 10.89918,-20.40354 13.07136,-23 0.92025,-1.1 2.9769,-4.025 4.57034,-6.5 1.59343,-2.475 3.99003,-5.7088 5.32577,-7.18623 1.33574,-1.47742 2.93442,-3.56078 3.55262,-4.62968 2.89255,-5.00135 10.66568,-14.38697 17.7185,-21.3941 7.50911,-7.46047 20.46772,-16.78999 23.32112,-16.78999 0.76734,0 3.28032,-1.575 5.58439,-3.5 5.42222,-4.53014 10.47853,-4.71954 18.15754,-0.68015 5.0823,2.67345 15.8445,5.58555 15.84067,4.28626 -0.006,-1.90377 -19.33093,-11.79167 -30.0387,-15.36945 -13.81233,-4.61511 -23.36324,-6.11394 -38.95951,-6.11394 -26.4038,0 -49.48769,7.29997 -70.91346,22.42544 -14.23377,10.0483 -32.08654,30.47688 -32.08654,36.71601 0,1.39495 0.70637,6.02234 1.56971,10.28311 2.68813,13.26646 0.0206,22.10843 -10.67688,35.38961 -13.38115,16.61309 -16.61886,18.77034 -25.64283,17.08557 -4.46734,-0.83405 -10.22347,-6.49101 -14.84947,-14.59363 -14.65432,-25.66759 -15.62882,-27.98431 -15.70165,-37.328 -0.0893,-11.45261 5.30204,-22.10874 13.96516,-27.60273 3.36109,-2.13154 5.82414,-4.98282 9.24472,-10.7019 2.56459,-4.28791 5.53375,-9.1462 6.59811,-10.7962 1.6984,-2.63288 1.36022,-2.47991 -2.76349,1.25 -2.58428,2.3375 -5.40081,4.25 -6.25896,4.25 -0.85814,0 -6.99615,-5.0625 -13.64001,-11.25 -6.64387,-6.1875 -13.37681,-12.29512 -14.96208,-13.57248 -4.40218,-3.54712 -3.84373,-6.63553 2.42795,-13.42752 2.92024,-3.1625 6.0427,-5.75 6.9388,-5.75 2.81827,0 30.35126,24.97399 32.15283,29.16445 l 1.14551,2.66445 5.47629,-6.48634 c 9.71296,-11.50443 27.51054,-26.15436 40.09431,-33.00331 l 4.96803,-2.70394 -2.71672,-1.11046 c -2.03246,-0.83077 -3.49156,-2.91155 -5.79303,-8.2613 -2.56349,-5.95883 -5.82678,-10.26412 -19.5763,-25.82727 -9.075,-10.27203 -16.85652,-19.29142 -17.29227,-20.0431 -1.47619,-2.54643 1.17043,-5.07 8.81107,-8.40138 l 7.61554,-3.32044 9.70072,9.66432 c 5.3354,5.31538 10.03017,9.66432 10.43283,9.66432 1.13446,0 0.86353,-6.99458 -0.40704,-10.50826 -1.84797,-5.11048 -0.28642,-12.01493 3.72046,-16.45006 3.64314,-4.03252 13.0659,-8.79447 14.52162,-7.33875 0.8842,0.8842 1.48643,5.91386 4.34605,36.29707 1.42021,15.08964 2.06687,18.48621 4.69493,24.66022 1.9376,4.55192 2.80624,7.92147 2.38459,9.25 -0.84166,2.65182 -0.437,2.63409 10.1945,-0.4468 10.75966,-3.11803 23.36003,-5.14791 37.58654,-6.05506 7.61134,-0.48534 10.49606,-1.00276 9.75,-1.74882 -0.62103,-0.62103 -1.05954,-5.73619 -1.05954,-12.35954 l 0,-11.3 -8.5,0 -8.5,0 0,11.46482 c 0,13.65643 0.10627,13.53518 -11.86283,13.53518 -11.61761,0 -11.13717,1.02978 -11.13717,-23.87143 0,-14.78889 0.34385,-21.07242 1.2,-21.92857 0.84823,-0.84823 6.71111,-1.2 20,-1.2 l 18.8,0 0,-10.92857 c 0,-13.87368 0.16161,-14.07143 11.5,-14.07143 6.26407,0 8.75071,0.39357 9.92857,1.57143 1.36578,1.36578 1.57143,5.93836 1.57143,34.94098 0,25.60311 -0.29093,33.5554 -1.25,34.16805 -0.6875,0.43918 -3.725,1.04001 -6.75,1.33519 l -5.5,0.5367 8.45648,1.30873 c 7.93855,1.22857 24.42769,5.10346 28.272,6.64381 1.36715,0.54779 1.07613,-0.5723 -1.3922,-5.35828 -5.60359,-10.86516 -5.37015,-12.27411 6.47489,-39.07973 5.80403,-13.13465 11.19728,-23.98637 12.27181,-24.69198 1.62049,-1.06414 3.04171,-0.78756 9.18801,1.78808 3.99905,1.67582 7.73539,3.91469 8.303,4.97526 0.83261,1.55576 -0.71709,5.93887 -8.02099,22.68626 -4.97915,11.41687 -9.053,21.28083 -9.053,21.91992 0,1.22855 7.77682,5.04255 12,5.88519 2.39366,0.4776 2.88127,-0.37824 11.46323,-20.11992 4.92978,-11.34031 9.53735,-21.09521 10.23904,-21.67756 3.09263,-2.56666 17.53661,3.82307 18.13075,8.02067 0.19572,1.38272 -3.90279,12.03858 -9.94036,25.84431 -11.52069,26.34364 -12.1071,27.11133 -23.53857,30.81533 l -6.36859,2.06353 6.6307,3.87879 c 3.64688,2.13334 10.50971,6.73756 15.25072,10.23161 4.74101,3.49404 8.7517,5.95776 8.91265,5.47493 0.16094,-0.48283 -0.1021,-3.395 -0.58454,-6.47149 -2.26837,-14.46519 3.47441,-28.16254 15.10933,-36.03794 12.42692,-8.41147 27.09981,-8.61409 39.80492,-0.54967 5.14354,3.26481 23.89072,22.95073 23.89072,25.08703 0,1.83991 -12.16581,13.81252 -14.02691,13.80414 -0.8102,-0.004 -5.6766,-4.51329 -10.81423,-10.02145 -10.72959,-11.5034 -13.6721,-13.3996 -19.73324,-12.71643 -10.68563,1.20443 -16.49909,12.73735 -10.83484,21.49451 1.9092,2.9517 3.60617,2.88289 2.85357,-0.11571 -0.7368,-2.93563 1.09566,-10.03144 3.11102,-12.0468 0.82638,-0.82638 2.12345,-1.26423 2.88238,-0.973 0.75893,0.29122 5.28421,4.77481 10.05618,9.96353 l 8.67631,9.43403 -2.75837,7.24398 c -2.34312,6.15345 -4.01114,8.51917 -11.08012,15.71473 l -8.32176,8.47076 3.42606,5.16001 c 1.88433,2.83801 5.64991,9.60116 8.36795,15.02924 39.56793,79.01918 7.60137,174.71433 -71.60884,214.36834 -26.94322,13.48825 -59.38182,19.3313 -88.52017,15.94484 z M 222.46375,448.71361 c -2.66597,-4.98142 0.24908,-12.06574 4.96482,-12.06574 2.78735,0 2.50644,-1.83479 -0.3923,-2.56232 -3.35026,-0.84087 -8.08303,1.88145 -9.58817,5.51516 -1.43645,3.46791 -0.0477,8.34055 2.86161,10.04045 2.5446,1.4868 3.27731,1.17129 2.15404,-0.92755 z m 23.96482,-1.56574 c 0,-2.16667 0.7619,-4.2619 2,-5.5 1.2381,-1.2381 3.33333,-2 5.5,-2 3.62194,0 4.68813,-1.33009 1.91821,-2.39301 -7.04653,-2.70401 -14.51523,4.76469 -11.81122,11.81122 1.06291,2.76992 2.39301,1.70373 2.39301,-1.91821 z m -10.66276,-64.05593 2.83724,-3.55588 -8.33724,-7.75997 c -4.58548,-4.26799 -10.26892,-9.48752 -12.62985,-11.59896 l -4.29262,-3.83899 -3.54336,3.40487 -3.54336,3.40486 12.33597,11.72053 c 6.78479,6.44628 12.78598,11.73377 13.33598,11.74997 0.55,0.0162 2.27676,-1.5707 3.83724,-3.52643 z m 277.16276,-1.44407 2.87418,-3 -2.47794,-2.75 c -1.36287,-1.5125 -5.64783,-6.16071 -9.52214,-10.32936 -5.17683,-5.57013 -7.3386,-8.7392 -8.15473,-11.95452 -4.02173,-15.84436 12.61715,-29.90483 27.28063,-23.05315 2.2,1.02797 7.81507,5.74309 12.47792,10.47804 4.66286,4.73494 8.96617,8.60899 9.56291,8.60899 0.59674,0 2.37532,-1.34681 3.95238,-2.99292 l 2.8674,-2.99292 -7.9303,-8.25584 c -9.86224,-10.26708 -14.20765,-13.58609 -20.11538,-15.36406 -14.14126,-4.25589 -29.7333,2.71913 -35.9576,16.08546 -3.23069,6.93773 -3.27301,18.02803 -0.0945,24.75457 2.37801,5.03232 19.02607,23.76571 21.12025,23.76571 0.68351,0 2.53612,-1.35 4.11692,-3 z m 9.54985,-15.09314 c 0.61612,-1.15123 0.87644,-3.06373 0.57849,-4.25 -0.72657,-2.89285 -9.15664,-11.06642 -10.53506,-10.21451 -2.58997,1.60069 -0.0462,8.61852 5.18603,14.30765 2.56268,2.78644 3.34938,2.81231 4.77054,0.15686 z m -64.76773,-33.27798 c 1.76983,-0.75412 4.1922,-2.44162 5.38303,-3.75 2.82768,-3.1068 20.64893,-43.96545 19.62272,-44.98885 -0.43333,-0.43214 -2.47791,-1.49128 -4.5435,-2.35364 l -3.75564,-1.56794 -2.3096,5.26578 c -1.27028,2.89617 -5.43024,12.41158 -9.24436,21.14536 -4.94838,11.33105 -7.56616,16.16891 -9.13904,16.88968 -1.76877,0.81052 -4.04085,0.22218 -11.5,-2.97787 -13.9231,-5.97314 -13.79457,-4.65852 -2.89034,-29.56206 5.00203,-11.42386 9.09461,-21.1625 9.09461,-21.64142 0,-1.26298 -8.16727,-4.33923 -8.99838,-3.38929 -1.15622,1.32154 -17.9018,40.57641 -18.59691,43.59474 -0.81959,3.55889 1.82864,10.63777 5.14526,13.75357 3.40697,3.20068 21.18096,10.89926 25.23215,10.92898 1.80516,0.0132 4.73016,-0.59293 6.5,-1.34704 z m -152.68314,-5.21507 c 2.97056,-1.31373 5.39114,-2.95677 5.37906,-3.6512 -0.0121,-0.69444 -0.9593,-3.28761 -2.10494,-5.76261 -1.53004,-3.30545 -2.41347,-8.41986 -3.32798,-19.26661 -0.68476,-8.12164 -1.52311,-15.04471 -1.863,-15.38461 -0.66558,-0.66557 -6.33601,1.33687 -8.50854,3.00469 -0.87026,0.66808 -1.11895,2.1242 -0.72313,4.2341 0.65641,3.49895 -0.83675,5.76549 -4.5811,6.9539 -1.7376,0.55149 -3.89395,-1.09599 -11.98508,-9.15676 l -9.86626,-9.82925 -4.18597,1.47227 c -2.30228,0.80975 -4.34418,1.96081 -4.53755,2.55791 -0.19337,0.5971 6.65191,8.9221 15.21173,18.5 11.48725,12.85351 16.33255,19.07123 18.50043,23.74067 3.28917,7.0846 2.69819,6.96316 12.59233,2.5875 z m 45.40102,-24.71381 c 0,-7.45556 0.40826,-11.70826 1.2,-12.5 0.8011,-0.8011 5.22222,-1.2 13.3,-1.2 8.07778,0 12.4989,0.3989 13.3,1.2 0.79174,0.79174 1.2,5.04444 1.2,12.5 l 0,11.3 5.5,0 5.5,0 0,-30 0,-30 -5.5,0 -5.5,0 0,11.3 c 0,7.45556 -0.40826,11.70826 -1.2,12.5 -0.84823,0.84823 -6.71111,1.2 -20,1.2 l -18.8,0 0,17.5 0,17.5 5.5,0 5.5,0 0,-11.3 z m -49.25,-31.3978 c 1.92778,-0.79606 1.61594,-7.3022 -0.35,-7.3022 -2.33006,0 -8.4,6.44095 -8.4,8.91342 0,2.0607 0.0935,2.07341 3.75,0.50919 2.0625,-0.88233 4.3125,-1.83651 5,-2.12041 z M 187.5503,354.05424 c -3.91695,-3.6265 -7.12173,-6.97507 -7.12173,-7.44128 0,-1.944 39.37913,-43.11786 43.00997,-44.97018 2.1131,-1.07802 6.23781,-2.22352 9.16602,-2.54556 4.36631,-0.48019 6.12449,-0.16853 9.77404,1.73257 2.44752,1.27494 4.60798,2.83696 4.80103,3.47116 0.36566,1.20126 -50.20427,56.34692 -51.67152,56.34692 -0.45984,0 -4.04085,-2.96714 -7.95781,-6.59363 z m 29.65312,-24.37329 c 11.67383,-12.6318 21.22515,-23.4318 21.22515,-24 0,-0.56819 -1.56589,-1.03308 -3.47976,-1.03308 -7.57319,0 -10.65502,2.34961 -28.97239,22.08882 -9.65132,10.40047 -17.54785,19.32022 -17.54785,19.82167 0,0.99871 5.72788,6.08951 6.85157,6.08951 0.38397,0 10.24944,-10.33511 21.92328,-22.96692 z m 4.97515,23.65664 c -3.61408,-3.33723 -5.75,-6.11841 -5.75,-7.48708 0,-2.77401 31.80831,-37.38011 33.99005,-36.97974 0.83047,0.15241 2.52245,2.28495 3.75995,4.73899 2.95771,5.86533 2.95294,13.00792 -0.0129,19.23605 -3.01017,6.3213 -21.18381,25.80219 -24.07028,25.80168 -1.22806,-2.2e-4 -4.65804,-2.30074 -7.91685,-5.3099 z m 17.04884,-10.65025 c 8.54335,-9.26388 12.1524,-15.35798 12.16389,-20.53947 0.015,-6.7895 -1.2701,-6.06257 -14.81483,8.37987 -7.23135,7.71061 -13.1479,14.35486 -13.1479,14.765 0,1.17861 5.25763,6.35513 6.45471,6.35513 0.59429,0 4.79915,-4.03224 9.34413,-8.96053 z m 95.25297,-73.47704 c -1.66777,-2.00954 -0.35014,-9.81666 2.33564,-13.83893 1.18383,-1.77293 3.71845,-4.0103 5.63248,-4.97195 4.00172,-2.01053 11.01827,-2.31334 12.78007,-0.55155 1.88769,1.88768 1.59062,17.26652 -0.37143,19.22857 -2.15851,2.15851 -18.60678,2.26656 -20.37676,0.13386 z m 15.94819,-10.06243 c 0,-4.89168 -0.22848,-5.5 -2.06574,-5.5 -3.14546,0 -5.75327,1.74933 -7.42391,4.97998 -2.68302,5.1884 -2.13189,6.02002 3.98965,6.02002 l 5.5,0 0,-5.5 z"
         id="path3016"
         inkscape:connector-curvature="0" />
      <path
         style="fill:#fdcf5b"
         d="m 362.92857,644.02561 c -19.42009,-2.07875 -38.73448,-7.78882 -57,-16.85136 -25.39607,-12.6004 -48.52973,-33.58811 -65.06173,-59.02638 -5.26019,-8.09401 -13.43827,-23.59895 -13.43827,-25.4778 0,-4.20969 16.57982,6.22934 36.5162,22.99142 12.42249,10.44456 48.85578,31.98638 54.098,31.98638 0.67099,0 3.19884,0.84823 5.61743,1.88496 6.55076,2.80798 31.81937,6.11504 46.72389,6.11504 34.8253,0 65.65233,-12.55219 89.57231,-36.47217 31.91847,-31.91847 44.22513,-79.34358 31.79557,-122.52783 -11.50134,-39.95932 -44.26461,-68.94324 -88.8234,-78.57733 -11.02815,-2.3844 -35.97185,-2.3844 -47,0 -18.5986,4.02122 -35.79339,11.6692 -49.69848,22.10514 -13.36147,10.02795 -28.72529,27.33595 -30.48341,34.34089 -0.33258,1.32507 0.1406,6.2842 1.0515,11.02027 2.66688,13.86603 -0.15941,24.28941 -9.33924,34.4432 -2.56967,2.84231 -6.12635,7.30823 -7.90373,9.92428 -5.39085,7.93456 -13.76061,10.72278 -20.84291,6.9434 -4.20943,-2.24631 -12.91498,-13.11718 -15.88809,-19.83991 -1.2928,-2.92326 -3.68532,-7.15761 -5.31671,-9.40968 -10.98909,-15.16999 -7.30136,-38.51144 7.57498,-47.94573 3.43273,-2.17697 5.85151,-5.03102 9.70888,-11.45603 7.93446,-13.21598 13.27733,-20.06116 24.18505,-30.98542 21.66077,-21.69361 49.87582,-36.93314 79.56497,-42.97467 26.99703,-5.4937 55.9644,-3.6076 82.06357,5.34327 4.57799,1.57005 9.22362,3.15415 10.32362,3.52022 1.1,0.36606 0.2,-0.31277 -2,-1.50853 -5.82645,-3.16682 -8.52115,-5.88589 -10.75122,-10.84843 -3.63357,-8.08571 -2.90856,-11.34691 8.0135,-36.04595 5.46038,-12.34806 10.64706,-22.90462 11.52596,-23.45901 2.39191,-1.50878 15.1083,4.26846 15.5119,7.04727 0.16508,1.13657 -3.72591,11.21755 -8.64664,22.40218 -4.92073,11.18462 -8.73809,20.87954 -8.48301,21.54425 0.25507,0.66472 3.65142,2.63389 7.54743,4.37594 6.20278,2.77349 7.2648,2.98623 8.54027,1.71077 0.80112,-0.80113 5.35123,-10.34661 10.11134,-21.21217 4.76012,-10.86556 9.3682,-20.20559 10.24018,-20.75563 2.18859,-1.38052 15.89029,4.88526 15.89029,7.26663 0,0.92023 -4.50391,11.99111 -10.00868,24.60196 -10.85053,24.8574 -12.34239,26.9975 -20.83779,29.89217 -6.21883,2.11897 -9.19083,1.93718 -15.74945,-0.96335 -8.67264,-3.83545 -7.84075,-2.97638 2.51597,2.59817 12.18001,6.55594 21.89949,13.15022 32.99995,22.38914 l 8.93422,7.43595 -2.67711,-5.71163 c -2.28287,-4.87052 -2.67711,-7.04008 -2.67711,-14.73266 0,-8.18032 0.3068,-9.64422 3.292,-15.70802 8.47406,-17.21326 28.14173,-23.92307 45.79705,-15.62409 5.16829,2.42939 14.47425,10.69169 22.57774,20.04567 l 5.16274,5.95942 -6.73731,6.67403 -6.73731,6.67402 -10.17745,-10.66393 c -5.5976,-5.86517 -11.16038,-11.15267 -12.36172,-11.75 -1.20134,-0.59734 -4.29823,-1.08607 -6.88196,-1.08607 -5.96456,0 -10.84219,2.92007 -13.46487,8.06093 -4.13396,8.10325 -1.59323,15.74746 7.36757,22.16651 l 2.83647,2.0319 -2.08647,-4.08983 c -3.18753,-6.24807 -2.24366,-17.16951 1.48384,-17.16951 0.68711,0 4.92532,3.92903 9.41825,8.73118 9.00864,9.62864 8.97959,9.5236 5.12039,18.51882 -1.12084,2.6125 -2.50388,4.75 -3.07342,4.75 -0.56955,0 -1.03554,0.57659 -1.03554,1.2813 0,1.75635 -11.20953,12.7187 -13.00548,12.7187 -0.79612,0 -4.80725,-3.2625 -8.91362,-7.25 l -7.46612,-7.25 6.057,6.64162 c 16.85588,18.48279 29.81837,45.53543 35.50705,74.10298 1.80757,9.0773 2.2413,14.64193 2.2413,28.7554 0,27.27019 -4.59236,46.7066 -16.89375,71.5 -21.70992,43.75627 -63.10323,74.92898 -112.22691,84.51647 -10.51534,2.05228 -34.5707,3.34913 -43.79947,2.36127 z m -139.5,-194.31872 c 0,-0.51754 -0.45,-1.2191 -1,-1.55902 -0.55,-0.33992 -1,-2.08804 -1,-3.8847 0,-3.74301 3.1049,-7.21884 7,-7.83625 l 2.5,-0.39628 -2.70494,-1.33137 c -5.43411,-2.67466 -12.85496,3.58951 -11.351,9.58174 0.97262,3.87521 6.55594,8.49612 6.55594,5.42588 z m 23,-2.24457 c 0,-4.35139 3.40096,-7.81445 7.67431,-7.81445 3.47647,0 4.46064,-1.3505 1.7439,-2.39301 -7.04653,-2.70401 -14.51523,4.76469 -11.81122,11.81122 1.02553,2.67249 2.39301,1.75603 2.39301,-1.60376 z m 267.75,-65.19131 c 1.2375,-1.08447 2.25,-2.60132 2.25,-3.37078 0,-0.76945 -3.7125,-5.41758 -8.25,-10.32916 -10.71566,-11.5991 -11.97118,-13.89917 -11.50427,-21.07543 0.76729,-11.79313 11.74752,-19.81014 22.98945,-16.78533 3.33429,0.89714 6.45914,3.30649 14.32185,11.04254 5.53136,5.44226 10.45994,9.89502 10.95239,9.89502 1.58498,0 7.49058,-6.33703 7.49058,-8.03781 0,-0.90501 -4.84577,-6.37095 -10.76837,-12.14653 -12.69698,-12.38179 -16.66783,-14.27882 -28.55724,-13.64288 -8.76357,0.46874 -15.09542,3.39058 -20.83026,9.61215 -5.95958,6.46538 -8.22183,12.25586 -8.2884,21.21507 -0.0763,10.26957 2.75387,15.68818 14.85364,28.43851 10.28953,10.84276 9.27525,10.49997 15.34063,5.18463 z m 9.7399,-15.60075 1.79366,-3.97761 -5.76918,-6.57118 c -3.46823,-3.95036 -6.41632,-6.44869 -7.39178,-6.26407 -2.20127,0.41663 -2.66827,6.84698 -0.76111,10.48033 1.80567,3.44001 8.05034,10.31014 9.37151,10.31014 0.52979,0 1.77039,-1.78992 2.7569,-3.97761 z m -64.69024,-32.42738 c 1.48519,-0.77274 3.6594,-2.46024 4.83159,-3.75 2.25491,-2.48107 20.36875,-42.90944 20.36875,-45.46111 0,-1.57183 -8.30976,-5.78065 -10.18137,-5.15677 -0.59794,0.19931 -5.22178,9.79224 -10.2752,21.31763 l -9.18803,20.95524 -3.9277,-0.1079 c -5.58883,-0.15353 -17.83516,-6.24225 -18.23747,-9.06744 -0.17037,-1.19644 3.54213,-10.99491 8.25,-21.77438 4.70787,-10.77948 8.55977,-20.45085 8.55977,-21.49195 0,-1.31753 -1.34553,-2.40678 -4.42656,-3.58343 -2.43461,-0.92979 -4.95534,-1.51427 -5.60163,-1.29884 -1.95585,0.65195 -19.93522,42.89019 -19.93134,46.82394 0.004,4.12719 2.84562,10.76108 5.6935,13.29204 1.10903,0.98563 6.46009,3.79595 11.89123,6.24516 10.68445,4.81823 17.0926,5.7019 22.17446,3.05781 z M 360.09524,602.9812 c -1.7515,-1.75149 -0.18154,-3.29978 4.99789,-4.92891 3.11551,-0.97995 7.72801,-3.27223 10.25,-5.09397 2.52199,-1.82173 6.16044,-4.38331 8.08544,-5.6924 4.91052,-3.33937 29,-27.4386 29,-29.01173 0,-0.71299 0.9,-2.11083 2,-3.10632 1.1,-0.99549 2,-2.25606 2,-2.80128 0,-0.54522 2.025,-3.1562 4.5,-5.80217 2.475,-2.64598 4.5,-5.42062 4.5,-6.16588 0,-1.74419 3.70319,-9.4292 4.90013,-10.16895 0.50319,-0.31099 1.67652,-3.1521 2.6074,-6.31358 0.93089,-3.16148 2.06361,-6.64814 2.51717,-7.74814 0.95748,-2.32216 1.69644,-5.59575 3.20256,-14.1875 0.91552,-5.2226 0.83829,-6.56351 -0.49524,-8.59874 -1.83945,-2.80735 -9.53964,-5.32415 -12.9574,-4.23512 -1.25104,0.39863 -4.52462,1.06165 -7.27462,1.47337 -2.75,0.41172 -5.77372,1.08381 -6.71938,1.49353 -1.23126,0.53346 -2.53853,-0.15191 -4.60479,-2.41418 -2.5726,-2.81663 -2.95118,-4.10079 -3.49206,-11.84524 -0.34302,-4.91141 -0.1586,-10.42439 0.42437,-12.68612 0.56706,-2.2 1.27843,-5.01915 1.58084,-6.26478 0.3024,-1.24563 0.94609,-2.50968 1.43042,-2.80901 0.48433,-0.29934 0.8806,-1.70064 0.8806,-3.11401 0,-2.25225 3.55457,-14.53762 6.10761,-21.10925 0.49081,-1.26338 0.89239,-3.25643 0.89239,-4.42901 0,-1.17257 0.42475,-3.51389 0.94388,-5.20294 6.01415,-19.56761 6.40262,-23.45872 2.5913,-25.95599 -1.35565,-0.88826 -4.00894,-1.61501 -5.89621,-1.61501 -3.5312,0 -18.63897,6.5486 -18.63897,8.07923 0,1.25307 -9.11748,10.41101 -11.75,11.80214 -1.2375,0.65395 -2.25,1.71104 -2.25,2.34909 0,0.63806 -1.1817,2.39353 -2.62599,3.90105 -1.4443,1.50752 -3.1318,3.63001 -3.75,4.71664 -0.61821,1.08664 -2.49972,3.92783 -4.18114,6.31378 -1.68142,2.38594 -4.69313,6.65926 -6.69268,9.49627 -1.99955,2.837 -5.45745,8.78177 -7.68421,13.21058 -3.82229,7.60215 -4.91896,10.26679 -8.69688,21.13122 -0.86064,2.475 -1.97077,4.9275 -2.46695,5.45 -0.49618,0.5225 -0.90215,2.23235 -0.90215,3.79966 0,1.56731 -0.71289,4.22824 -1.5842,5.91316 -3.36399,6.50525 -5.794,18.20505 -7.33939,35.33718 -0.72911,8.08284 -3.56275,28.86732 -4.63537,34 -0.22988,1.1 -2.29968,3.55216 -4.59956,5.44923 -3.40414,2.80795 -5.38999,3.59472 -10.68112,4.23171 -7.48556,0.90117 -8.54512,0.36835 -11.29688,-5.68094 -1.45389,-3.19615 -1.82397,-6.59249 -1.84152,-16.90033 -0.0202,-11.8553 0.18662,-13.32665 2.55285,-18.16305 1.46219,-2.98861 2.43446,-6.48863 2.25,-8.09967 -0.29218,-2.55193 -0.74397,-2.86746 -4.49696,-3.14064 -3.08244,-0.22438 -5.74058,0.48804 -10.17715,2.72762 -3.30275,1.66722 -6.29551,3.50137 -6.65058,4.07587 -0.35506,0.57451 -3.04438,2.81667 -5.97626,4.98257 -3.30724,2.44321 -6.72314,6.23023 -8.99905,9.97678 -3.87741,6.38292 -5.44229,7.28854 -12.87976,7.45376 -3.10575,0.069 -4.32155,-0.44864 -5.84925,-2.4903 -2.59489,-3.46789 -3.99295,-8.94884 -4.51915,-17.71684 l -0.43775,-7.29424 5.72454,-10.20576 c 12.34149,-22.0025 13.80621,-24.42407 29.26959,-48.39037 3.48317,-5.39847 7.86443,-11.8404 9.73614,-14.3154 1.87172,-2.475 4.91635,-6.75 6.76586,-9.5 9.71111,-14.43927 14.58221,-18.63448 22.29727,-19.20341 3.57069,-0.26331 4.2144,0.002 4.73635,1.94934 2.0095,7.49875 -0.54502,18.78323 -5.94963,26.28226 -1.20034,1.66551 -7.00007,12.78061 -12.88829,24.70023 -5.88821,11.91961 -11.34144,22.19952 -12.11829,22.84425 -0.77684,0.64472 -1.41244,1.84837 -1.41244,2.67477 0,1.20203 0.65004,1.33339 3.25,0.65675 3.78593,-0.98529 19.37687,-0.93295 25.40011,0.0853 l 4.15011,0.70157 4.23957,-7.34551 c 2.33176,-4.04003 4.79772,-8.02051 5.47992,-8.84551 0.68219,-0.825 2.80172,-4.425 4.71005,-8 13.23481,-24.79356 13.8284,-25.75477 28.58199,-46.28336 1.27146,-1.76915 3.40896,-4.36626 4.75,-5.77136 1.34104,-1.40509 2.43825,-2.98813 2.43825,-3.51787 0,-0.52973 4.63414,-5.58151 10.29809,-11.22618 9.73074,-9.69763 21.30207,-18.19943 24.77191,-18.20067 0.8635,-3.1e-4 3.41004,-1.57556 5.65897,-3.50056 2.8575,-2.44592 5.0694,-3.5 7.34445,-3.5 1.79052,0 6.57366,1.575 10.6292,3.5 4.05553,1.925 8.50387,3.5 9.8852,3.5 2.75826,0 8.41218,2.58472 8.41218,3.84568 0,0.43688 1.61185,2.67741 3.58189,4.97895 4.83135,5.64435 5.9288,9.90477 4.00842,15.56112 -1.90325,5.60588 -10.29984,18.50293 -16.39315,25.17963 -7.67355,8.40821 -13.19716,15.54474 -13.19716,17.05076 0,0.77603 -0.39506,2.19235 -0.87792,3.14739 -3.14759,6.22562 -4.12525,9.52768 -3.16389,10.68606 0.68073,0.82023 6.00282,1.46057 15.78441,1.89915 18.70066,0.83848 27.20725,3.49609 33.80722,10.56195 10.59319,11.34097 11.36211,13.88618 7.68346,25.43309 -2.66323,8.35961 -5.36389,13.36743 -10.69817,19.83759 -1.66931,2.02478 -4.30028,5.39978 -5.84661,7.5 -8.76568,11.90559 -20.71908,26.5756 -30.04966,36.87894 -4.73153,5.22483 -17.5813,15.20971 -24.63884,19.14556 -6.03007,3.36285 -17.61536,7.37892 -19.3576,6.71036 -0.91733,-0.35201 -2.37359,-0.0543 -3.23614,0.66153 -0.86255,0.71585 -3.66932,1.61126 -6.23726,1.98981 -2.56795,0.37855 -8.269,1.41812 -12.669,2.31016 -9.17732,1.86057 -8.95038,1.83852 -9.83333,0.95556 z M 215.92857,378.65713 c -7.7,-7.10427 -14.14117,-13.8176 -14.31371,-14.91852 -0.2077,-1.3252 1.53108,-3.90631 5.14506,-7.63754 4.78944,-4.94482 5.71129,-5.50075 7.51802,-4.53382 4.37643,2.3422 29.15063,26.33747 29.15063,28.23411 0,2.74192 -8.78689,11.85502 -11.38684,11.80957 -1.28837,-0.0225 -7.57755,-5.07856 -16.11316,-12.9538 z m 20.20239,5.79457 c 1.81369,-1.75789 3.29761,-3.79085 3.29761,-4.51768 0,-1.24273 -4.90427,-6.11214 -19.85284,-19.71168 l -6.35284,-5.77953 -3.89716,3.80548 c -2.14344,2.09301 -3.89716,4.3384 -3.89716,4.98975 0,1.5139 24.5629,24.40983 26.18702,24.40983 0.66977,0 2.70169,-1.43828 4.51537,-3.19617 z m -48.10113,-31.70151 c -3.20988,-3.24372 -5.67079,-6.35106 -5.4687,-6.9052 0.20209,-0.55413 8.87372,-10.10297 19.27028,-21.21964 20.5403,-21.96299 23.18331,-23.91734 32.39682,-23.95552 5.75204,-0.0238 11.5121,2.2925 11.01253,4.42856 -0.52337,2.2378 -48.20371,53.3893 -49.84349,53.47213 -0.84222,0.0425 -4.15757,-2.5766 -7.36744,-5.82033 z m 30.79626,-22.97321 c 11.88136,-12.85399 21.60248,-23.93524 21.60248,-24.625 0,-2.94809 -9.26543,-2.52472 -15.42962,0.70502 -3.6394,1.90687 -37.57038,38.62837 -37.57038,40.6602 0,2.01415 6.09867,7.15102 8.14752,6.8626 0.90613,-0.12756 11.36863,-10.74883 23.25,-23.60282 z m 4.19347,22.58382 c -3.07504,-2.90788 -5.59099,-5.83663 -5.59099,-6.50833 0,-1.74978 30.97808,-35.2046 32.59832,-35.2046 0.74267,0 2.13051,1.4625 3.08408,3.25 2.49437,4.67577 2.30694,14.14999 -0.38081,19.25 -2.4929,4.73028 -20.88988,24.5 -22.7988,24.5 -0.72644,0 -3.83675,-2.37918 -6.9118,-5.28707 z m 16.1941,-7.6873 c 10.60602,-11.45083 13.18713,-15.90953 13.20286,-22.80702 0.0198,-8.69533 -1.8544,-8.20205 -12.72626,3.34944 -5.14118,5.46257 -11.42505,12.31448 -13.96414,15.22645 l -4.61654,5.2945 3.86244,3.9555 c 2.12435,2.17553 4.33362,3.9489 4.9095,3.94083 0.57588,-0.008 4.77534,-4.03994 9.33214,-8.9597 z m 50.69509,-13.77563 c -1.37203,-3.1625 -2.82885,-6.49251 -3.23739,-7.40001 -0.40853,-0.90751 -8.16779,-10.04985 -17.24279,-20.31632 -9.075,-10.26647 -16.64553,-19.54971 -16.82341,-20.62942 -0.2571,-1.56063 1.0198,-2.57215 6.22805,-4.93368 3.60329,-1.63381 7.25697,-2.97057 8.11928,-2.97057 0.86231,0 5.804,4.38319 10.98154,9.74042 6.13438,6.34729 9.74923,9.3954 10.37688,8.75 1.077,-1.10745 1.66829,-9.16865 0.84283,-11.49042 -1.57622,-4.43339 -1.65401,-5.55643 -0.64818,-9.35709 1.28075,-4.8395 4.91863,-9.05226 10.13317,-11.73449 6.98798,-3.59445 6.73816,-4.00607 7.33849,12.09158 0.0718,1.925 0.42138,4.175 0.77687,5 0.35549,0.825 1.31923,8.925 2.14165,18 1.26174,13.92272 1.95203,17.58013 4.41932,23.4151 1.60822,3.80331 2.70638,7.48229 2.44036,8.17551 -0.60089,1.56591 -18.27976,9.40939 -21.20835,9.40939 -1.65385,0 -2.71377,-1.31396 -4.63832,-5.75 z m 13.79995,-0.83745 c 9.11344,-3.79118 9.23451,-4.00001 6.24193,-10.76675 -2.05956,-4.65704 -2.74821,-8.51347 -3.68414,-20.63108 -0.6331,-8.19688 -1.49645,-15.46221 -1.91855,-16.14519 -0.59307,-0.95959 -1.7505,-0.81547 -5.09342,0.63424 -6.33817,2.74864 -6.82595,3.32116 -6.82595,8.01169 0,4.22436 -1.03888,5.48454 -4.52141,5.48454 -0.74681,0 -5.58173,-4.34211 -10.74428,-9.64913 l -9.38645,-9.64913 -4.65974,1.77957 c -2.56286,0.97876 -5.17101,2.39561 -5.7959,3.14855 -1.26263,1.52138 -0.65983,2.28608 19.6047,24.87014 8.15066,9.08362 12.53163,14.88288 14.54212,19.25 1.74746,3.79577 3.49458,6.25 4.44927,6.25 0.86457,0 4.3709,-1.16435 7.79182,-2.58745 z m -5.28706,-55.50492 c 2.67511,-1.1508 5.07905,-2.65319 5.34209,-3.33865 0.69835,-1.81989 -0.71141,-7.86106 -1.92919,-8.26699 -3.31389,-1.10463 -12.70105,9.79351 -10.91913,12.67671 0.89736,1.45197 2.01048,1.29314 7.50623,-1.07107 z M 336,318.07644 c -1.32237,-1.32237 -1.57143,-4.69827 -1.57143,-21.3 0,-14.01111 0.34777,-20.07634 1.2,-20.92857 0.84823,-0.84823 6.71111,-1.2 20,-1.2 l 18.8,0 0,-10.92857 c 0,-13.67262 0.29759,-14.07143 10.5,-14.07143 5.35498,0 7.78479,0.42765 8.92857,1.57143 1.3628,1.3628 1.57143,5.80086 1.57143,33.42857 0,27.62771 -0.20863,32.06577 -1.57143,33.42857 -1.14378,1.14378 -3.57359,1.57143 -8.92857,1.57143 -10.20241,0 -10.5,-0.3988 -10.5,-14.07143 l 0,-10.92857 -9.5,0 -9.5,0 0,10.92857 c 0,13.67263 -0.29759,14.07143 -10.5,14.07143 -5.35498,0 -7.78479,-0.42765 -8.92857,-1.57143 z m 15.42857,-13.72857 c 0,-7.45556 0.40826,-11.70826 1.2,-12.5 0.78919,-0.78919 5,-1.2 12.3,-1.2 7.3,0 11.51081,0.41081 12.3,1.2 0.79174,0.79174 1.2,5.04444 1.2,12.5 l 0,11.3 6.5,0 6.5,0 0,-31 0,-31 -6.5,0 -6.5,0 0,11.3 c 0,7.45556 -0.40826,11.70826 -1.2,12.5 -0.84823,0.84823 -6.71111,1.2 -20,1.2 l -18.8,0 0,18.5 0,18.5 6.5,0 6.5,0 0,-11.3 z m -15.65973,-35.75973 c -1.13251,-1.13251 -0.15877,-8.54237 1.53957,-11.71575 1.86068,-3.47671 5.20575,-5.53674 10.29753,-6.34164 7.08183,-1.11949 7.82263,-0.29862 7.82263,8.66814 0,9.68095 -0.79908,10.44898 -10.87143,10.44898 -4.25071,0 -8.20545,-0.47688 -8.7883,-1.05973 z m 15.65973,-9.47166 c 0,-7.42241 -1.04954,-8.51916 -6.13623,-6.41218 -3.63358,1.50508 -6.85473,6.2915 -6.86003,10.19357 -0.004,2.71833 0.0711,2.75 6.49626,2.75 l 6.5,0 0,-6.53139 z"
         id="path3014"
         inkscape:connector-curvature="0" />
      <path
         style="fill:#9ea1a3"
         d="m 362.92857,644.02561 c -19.42009,-2.07875 -38.73448,-7.78882 -57,-16.85136 -25.39607,-12.6004 -48.52973,-33.58811 -65.06173,-59.02638 -5.26019,-8.09401 -13.43827,-23.59895 -13.43827,-25.4778 0,-4.20969 16.57982,6.22934 36.5162,22.99142 12.42249,10.44456 48.85578,31.98638 54.098,31.98638 0.67099,0 3.19884,0.84823 5.61743,1.88496 6.55076,2.80798 31.81937,6.11504 46.72389,6.11504 34.8253,0 65.65233,-12.55219 89.57231,-36.47217 31.91847,-31.91847 44.22513,-79.34358 31.79557,-122.52783 -11.50134,-39.95932 -44.26461,-68.94324 -88.8234,-78.57733 -11.02815,-2.3844 -35.97185,-2.3844 -47,0 -18.5986,4.02122 -35.79339,11.6692 -49.69848,22.10514 -13.36147,10.02795 -28.72529,27.33595 -30.48341,34.34089 -0.33258,1.32507 0.1406,6.2842 1.0515,11.02027 2.66688,13.86603 -0.15941,24.28941 -9.33924,34.4432 -2.56967,2.84231 -6.12635,7.30823 -7.90373,9.92428 -5.39085,7.93456 -13.76061,10.72278 -20.84291,6.9434 -4.20943,-2.24631 -12.91498,-13.11718 -15.88809,-19.83991 -1.2928,-2.92326 -3.68532,-7.15761 -5.31671,-9.40968 -10.98909,-15.16999 -7.30136,-38.51144 7.57498,-47.94573 3.43273,-2.17697 5.85151,-5.03102 9.70888,-11.45603 7.93446,-13.21598 13.27733,-20.06116 24.18505,-30.98542 21.66077,-21.69361 49.87582,-36.93314 79.56497,-42.97467 56.26685,-11.4499 114.2213,8.83917 155.84337,54.55867 20.91063,22.96914 33.06342,47.16696 39.22265,78.09752 1.80757,9.0773 2.2413,14.64193 2.2413,28.7554 0,27.27019 -4.59236,46.7066 -16.89375,71.5 -21.70992,43.75627 -63.10323,74.92898 -112.22691,84.51647 -10.51534,2.05228 -34.5707,3.34913 -43.79947,2.36127 z m -139.5,-194.31872 c 0,-0.51754 -0.45,-1.2191 -1,-1.55902 -0.55,-0.33992 -1,-2.08804 -1,-3.8847 0,-3.74301 3.1049,-7.21884 7,-7.83625 l 2.5,-0.39628 -2.70494,-1.33137 c -5.43411,-2.67466 -12.85496,3.58951 -11.351,9.58174 0.97262,3.87521 6.55594,8.49612 6.55594,5.42588 z m 23,-2.24457 c 0,-4.35139 3.40096,-7.81445 7.67431,-7.81445 3.47647,0 4.46064,-1.3505 1.7439,-2.39301 -7.04653,-2.70401 -14.51523,4.76469 -11.81122,11.81122 1.02553,2.67249 2.39301,1.75603 2.39301,-1.60376 z M 360.09524,602.9812 c -1.7515,-1.75149 -0.18154,-3.29978 4.99789,-4.92891 3.11551,-0.97995 7.72801,-3.27223 10.25,-5.09397 2.52199,-1.82173 6.16044,-4.38331 8.08544,-5.6924 4.91052,-3.33937 29,-27.4386 29,-29.01173 0,-0.71299 0.9,-2.11083 2,-3.10632 1.1,-0.99549 2,-2.25606 2,-2.80128 0,-0.54522 2.025,-3.1562 4.5,-5.80217 2.475,-2.64598 4.5,-5.42062 4.5,-6.16588 0,-1.74419 3.70319,-9.4292 4.90013,-10.16895 0.50319,-0.31099 1.67652,-3.1521 2.6074,-6.31358 0.93089,-3.16148 2.06361,-6.64814 2.51717,-7.74814 0.95748,-2.32216 1.69644,-5.59575 3.20256,-14.1875 0.91552,-5.2226 0.83829,-6.56351 -0.49524,-8.59874 -1.83945,-2.80735 -9.53964,-5.32415 -12.9574,-4.23512 -1.25104,0.39863 -4.52462,1.06165 -7.27462,1.47337 -2.75,0.41172 -5.77372,1.08381 -6.71938,1.49353 -1.23126,0.53346 -2.53853,-0.15191 -4.60479,-2.41418 -2.5726,-2.81663 -2.95118,-4.10079 -3.49206,-11.84524 -0.34302,-4.91141 -0.1586,-10.42439 0.42437,-12.68612 0.56706,-2.2 1.27843,-5.01915 1.58084,-6.26478 0.3024,-1.24563 0.94609,-2.50968 1.43042,-2.80901 0.48433,-0.29934 0.8806,-1.70064 0.8806,-3.11401 0,-2.25225 3.55457,-14.53762 6.10761,-21.10925 0.49081,-1.26338 0.89239,-3.25643 0.89239,-4.42901 0,-1.17257 0.42475,-3.51389 0.94388,-5.20294 6.01415,-19.56761 6.40262,-23.45872 2.5913,-25.95599 -1.35565,-0.88826 -4.00894,-1.61501 -5.89621,-1.61501 -3.5312,0 -18.63897,6.5486 -18.63897,8.07923 0,1.25307 -9.11748,10.41101 -11.75,11.80214 -1.2375,0.65395 -2.25,1.71104 -2.25,2.34909 0,0.63806 -1.1817,2.39353 -2.62599,3.90105 -1.4443,1.50752 -3.1318,3.63001 -3.75,4.71664 -0.61821,1.08664 -2.49972,3.92783 -4.18114,6.31378 -1.68142,2.38594 -4.69313,6.65926 -6.69268,9.49627 -1.99955,2.837 -5.45745,8.78177 -7.68421,13.21058 -3.82229,7.60215 -4.91896,10.26679 -8.69688,21.13122 -0.86064,2.475 -1.97077,4.9275 -2.46695,5.45 -0.49618,0.5225 -0.90215,2.23235 -0.90215,3.79966 0,1.56731 -0.71289,4.22824 -1.5842,5.91316 -3.36399,6.50525 -5.794,18.20505 -7.33939,35.33718 -0.72911,8.08284 -3.56275,28.86732 -4.63537,34 -0.22988,1.1 -2.29968,3.55216 -4.59956,5.44923 -3.40414,2.80795 -5.38999,3.59472 -10.68112,4.23171 -7.48556,0.90117 -8.54512,0.36835 -11.29688,-5.68094 -1.45389,-3.19615 -1.82397,-6.59249 -1.84152,-16.90033 -0.0202,-11.8553 0.18662,-13.32665 2.55285,-18.16305 1.46219,-2.98861 2.43446,-6.48863 2.25,-8.09967 -0.29218,-2.55193 -0.74397,-2.86746 -4.49696,-3.14064 -3.08244,-0.22438 -5.74058,0.48804 -10.17715,2.72762 -3.30275,1.66722 -6.29551,3.50137 -6.65058,4.07587 -0.35506,0.57451 -3.04438,2.81667 -5.97626,4.98257 -3.30724,2.44321 -6.72314,6.23023 -8.99905,9.97678 -3.87741,6.38292 -5.44229,7.28854 -12.87976,7.45376 -3.10575,0.069 -4.32155,-0.44864 -5.84925,-2.4903 -2.59489,-3.46789 -3.99295,-8.94884 -4.51915,-17.71684 l -0.43775,-7.29424 5.72454,-10.20576 c 12.34149,-22.0025 13.80621,-24.42407 29.26959,-48.39037 3.48317,-5.39847 7.86443,-11.8404 9.73614,-14.3154 1.87172,-2.475 4.91635,-6.75 6.76586,-9.5 9.71111,-14.43927 14.58221,-18.63448 22.29727,-19.20341 3.57069,-0.26331 4.2144,0.002 4.73635,1.94934 2.0095,7.49875 -0.54502,18.78323 -5.94963,26.28226 -1.20034,1.66551 -7.00007,12.78061 -12.88829,24.70023 -5.88821,11.91961 -11.34144,22.19952 -12.11829,22.84425 -0.77684,0.64472 -1.41244,1.84837 -1.41244,2.67477 0,1.20203 0.65004,1.33339 3.25,0.65675 3.78593,-0.98529 19.37687,-0.93295 25.40011,0.0853 l 4.15011,0.70157 4.23957,-7.34551 c 2.33176,-4.04003 4.79772,-8.02051 5.47992,-8.84551 0.68219,-0.825 2.80172,-4.425 4.71005,-8 13.23481,-24.79356 13.8284,-25.75477 28.58199,-46.28336 1.27146,-1.76915 3.40896,-4.36626 4.75,-5.77136 1.34104,-1.40509 2.43825,-2.98813 2.43825,-3.51787 0,-0.52973 4.63414,-5.58151 10.29809,-11.22618 9.73074,-9.69763 21.30207,-18.19943 24.77191,-18.20067 0.8635,-3.1e-4 3.41004,-1.57556 5.65897,-3.50056 2.8575,-2.44592 5.0694,-3.5 7.34445,-3.5 1.79052,0 6.57366,1.575 10.6292,3.5 4.05553,1.925 8.50387,3.5 9.8852,3.5 2.75826,0 8.41218,2.58472 8.41218,3.84568 0,0.43688 1.61185,2.67741 3.58189,4.97895 4.83135,5.64435 5.9288,9.90477 4.00842,15.56112 -1.90325,5.60588 -10.29984,18.50293 -16.39315,25.17963 -7.67355,8.40821 -13.19716,15.54474 -13.19716,17.05076 0,0.77603 -0.39506,2.19235 -0.87792,3.14739 -3.14759,6.22562 -4.12525,9.52768 -3.16389,10.68606 0.68073,0.82023 6.00282,1.46057 15.78441,1.89915 18.70066,0.83848 27.20725,3.49609 33.80722,10.56195 10.59319,11.34097 11.36211,13.88618 7.68346,25.43309 -2.66323,8.35961 -5.36389,13.36743 -10.69817,19.83759 -1.66931,2.02478 -4.30028,5.39978 -5.84661,7.5 -8.76568,11.90559 -20.71908,26.5756 -30.04966,36.87894 -4.73153,5.22483 -17.5813,15.20971 -24.63884,19.14556 -6.03007,3.36285 -17.61536,7.37892 -19.3576,6.71036 -0.91733,-0.35201 -2.37359,-0.0543 -3.23614,0.66153 -0.86255,0.71585 -3.66932,1.61126 -6.23726,1.98981 -2.56795,0.37855 -8.269,1.41812 -12.669,2.31016 -9.17732,1.86057 -8.95038,1.83852 -9.83333,0.95556 z"
         id="path3012"
         inkscape:connector-curvature="0" />
      <path
         style="fill:#6b8ca7"
         d="m 361.10356,639.59182 c -29.53794,-3.43291 -57.37692,-14.9143 -82.26497,-33.92784 -10.44193,-7.97724 -25.20792,-22.64491 -32.42773,-32.21178 -6.96485,-9.22905 -17.27744,-27.13293 -16.81378,-29.19072 0.39481,-1.75222 9.48441,3.45665 17.25198,9.88639 2.65775,2.2 9.19924,7.6359 14.53663,12.07977 5.3374,4.44387 12.36803,9.57436 15.62362,11.40108 3.25559,1.82672 9.74426,5.61058 14.41926,8.40858 8.9169,5.33679 23.67493,12.5814 25.66709,12.59979 0.64191,0.006 3.14595,0.85901 5.56454,1.89574 6.78167,2.90697 31.8186,6.11504 47.72389,6.11504 35.99778,0 65.10002,-11.92966 90.10742,-36.93706 24.57637,-24.57638 36.93706,-54.21324 36.93706,-88.56294 0,-33.8709 -12.79867,-64.84537 -36.26667,-87.77014 -32.74947,-31.99139 -87.05695,-40.59107 -132.44148,-20.97232 -19.02122,8.22246 -40.31393,25.32093 -51.76475,41.56813 -5.82886,8.27038 -6.5961,11.35677 -4.76648,19.17433 2.88355,12.32073 -0.43076,26.30942 -8.17398,34.5 -1.81986,1.925 -5.15602,6.04754 -7.41369,9.16121 -6.84946,9.44644 -11.81573,9.85949 -22.61585,1.88097 -6.19617,-4.57738 -7.79757,-6.63799 -9.99175,-12.85696 -0.83094,-2.35513 -3.1053,-6.22793 -5.05414,-8.60623 -6.09312,-7.43586 -8.54563,-20.66191 -5.57755,-30.07899 1.96752,-6.24252 6.96309,-12.96445 12.16638,-16.37083 3.52742,-2.30925 5.9859,-5.1835 9.53029,-11.14203 7.55047,-12.69322 16.38393,-23.79578 27.16731,-34.14592 53.08739,-50.95456 133.84015,-57.56205 195.74956,-16.01696 20.38919,13.68242 39.48877,34.55128 52.88031,57.77887 30.11994,52.24292 28.17959,114.4802 -5.13958,164.85365 -9.01113,13.62344 -28.20771,32.82002 -41.83115,41.83115 -30.83098,20.39293 -68.07498,29.68965 -102.78179,25.65602 z M 249.04358,452.18305 c -2.0792,-3.17326 -2.06186,-7.38393 0.04,-9.70644 1.83794,-2.0309 7.31013,-2.46363 9.05751,-0.71624 0.61188,0.61187 1.71221,0.9126 2.44519,0.66827 0.91714,-0.30571 0.34477,-1.43215 -1.83557,-3.6125 -4.28775,-4.28775 -9.2654,-4.37883 -13.39904,-0.24519 -3.83134,3.83133 -3.95637,8.69547 -0.33418,13.00019 1.42389,1.6922 3.27564,3.07673 4.11501,3.07673 1.34411,0 1.33351,-0.29395 -0.0889,-2.46482 z m -22.61501,-0.38019 c 0,-0.46476 -0.9,-1.6595 -2,-2.65499 -4.35155,-3.9381 -1.35526,-11.5 4.5567,-11.5 1.89382,0 3.4433,-0.42448 3.4433,-0.9433 0,-1.65132 -4.34181,-4.0567 -7.32251,-4.0567 -4.11845,0 -9.67749,5.7443 -9.67749,10 0,2.30588 0.95,4.15 3.4,6.6 3.10176,3.10176 7.6,4.61399 7.6,2.55499 z m 139.5,147.84991 c 2.2,-1.02906 6.13581,-2.68865 8.74625,-3.68796 2.61044,-0.99932 4.74794,-2.34521 4.75,-2.99088 0.002,-0.64567 1.41613,-2.22067 3.14236,-3.5 6.20574,-4.59913 26.71451,-25.10953 30.49799,-30.50041 2.12487,-3.02761 6.0009,-8.00946 8.6134,-11.07079 2.6125,-3.06132 4.75,-6.24714 4.75,-7.07959 0,-0.83246 1.38814,-3.9732 3.08475,-6.97944 3.3425,-5.92258 6.02643,-13.43903 8.99677,-25.19583 2.28,-9.02437 2.41372,-13.84794 0.46118,-16.63558 -1.83792,-2.624 -9.435,-4.80675 -13.75413,-3.95175 -8.47971,1.67861 -15.36221,2.58118 -16.46264,2.15891 -5.2402,-2.01086 -6.7483,-17.08151 -2.93409,-29.32082 1.32848,-4.26292 2.98,-9.77576 3.67004,-12.25076 0.69005,-2.475 2.10797,-7.14621 3.15095,-10.38046 1.04298,-3.23426 2.34376,-7.95926 2.89063,-10.5 1.26964,-5.89868 2.45604,-10.58586 3.95357,-15.61954 0.6545,-2.2 1.39744,-6.29993 1.65098,-9.11096 0.41831,-4.63799 0.20932,-5.30891 -2.25838,-7.25 -3.62107,-2.84833 -8.6331,-2.73705 -16.25735,0.36096 -3.3839,1.375 -6.49418,2.5 -6.91173,2.5 -0.41756,0 2.25937,-2.025 5.94873,-4.5 3.68936,-2.475 7.35448,-4.5 8.14471,-4.5 0.79023,0 3.32194,-1.575 5.62601,-3.5 5.04621,-4.21599 10.8174,-4.91425 11.73133,-1.41938 0.39187,1.49849 1.10645,1.93356 2.55404,1.555 1.10547,-0.28908 3.72557,0.34964 5.82245,1.41939 2.09688,1.06974 4.93225,1.94499 6.30082,1.94499 1.36857,0 3.749,1.11854 5.28984,2.48565 11.07956,9.83034 13.25761,14.0686 10.83731,21.0883 -1.82802,5.3019 -9.29904,16.393 -15.84714,23.52588 -2.85376,3.10861 -6.76365,7.71821 -8.68865,10.24354 -3.87934,5.08917 -10.18986,19.99828 -9.36948,22.13616 0.86009,2.24137 3.16309,2.66222 18.86948,3.44818 21.00041,1.05089 24.79944,2.7131 36.50026,15.97024 2.13779,2.42214 2.70843,3.74813 1.98706,4.61732 -0.70486,0.84931 -0.55301,1.60029 0.50035,2.4745 2.1128,1.75346 1.89731,4.55967 -0.98324,12.80445 -3.16723,9.06531 -4.35222,10.89624 -20.50443,31.68153 -1.375,1.7694 -3.85,4.99401 -5.5,7.16579 -14.82884,19.51817 -31.60409,35.45678 -44.68762,42.45887 -3.47119,1.85772 -10.06863,1.93141 -11.38791,0.12719 -1.48898,-2.0363 -3.42447,-0.71859 -3.42447,2.33142 0,1.87345 -0.52952,2.44098 -2.27749,2.44098 -1.25263,0 -3.21006,0.6532 -4.34987,1.45155 -2.23629,1.56635 -20.03579,5.58809 -24.28194,5.48642 -2.32135,-0.0556 -2.17482,-0.25657 1.4093,-1.93307 z M 305.6013,568.35599 c -2.87857,-3.46846 -4.17273,-10.20937 -4.17273,-21.73455 0,-10.44892 0.28044,-12.3774 2.49023,-17.12427 4.38501,-9.4195 3.21026,-13.27571 -3.96165,-13.00444 -5.32253,0.20132 -10.25253,2.45946 -16.59807,7.60258 -2.43678,1.97504 -6.14013,4.97631 -8.22966,6.66949 -2.08953,1.69319 -4.91734,4.84986 -6.28402,7.01482 -4.93072,7.81077 -9.26747,9.81006 -13.81415,6.36848 -1.04353,-0.78989 -2.23004,-1.23053 -2.63669,-0.97921 -2.28946,1.41496 -5.93252,-9.00688 -5.94988,-17.02102 -0.008,-3.86293 0.60976,-7.12452 1.73544,-9.15717 0.96165,-1.73645 3.48619,-6.43747 5.61009,-10.44672 2.12389,-4.00924 5.03407,-9.11351 6.46706,-11.34282 1.43298,-2.22931 3.45416,-5.60076 4.49151,-7.49212 3.2268,-5.8833 25.44123,-39.74394 32.4334,-49.43704 1.23949,-1.71827 3.32934,-4.69913 4.64411,-6.62413 6.72606,-9.84781 15.27727,-14.41408 19.6249,-10.47953 3.54656,3.20959 1.58162,15.39468 -3.73607,23.16833 -1.43391,2.09616 -7.70774,13.9362 -13.94185,26.3112 -6.23411,12.375 -11.88937,23.27511 -12.56725,24.22248 -0.97674,1.36504 -0.97656,1.97841 8.7e-4,2.95584 0.9714,0.9714 2.19097,0.97724 5.74187,0.0275 6.04979,-1.61807 14.92239,-1.50504 20.75383,0.26438 2.62571,0.79672 5.38093,1.21568 6.12272,0.93103 0.74178,-0.28465 2.55481,-2.62888 4.02896,-5.2094 1.47414,-2.58052 3.99333,-6.71685 5.59818,-9.19185 1.60486,-2.475 5.04276,-8.55 7.63978,-13.5 2.59702,-4.95 5.42261,-10.19748 6.2791,-11.66108 0.85648,-1.46359 2.78618,-4.91924 4.28822,-7.67923 2.78365,-5.11491 4.76902,-7.23097 4.76902,-5.08293 0,0.65714 -1.7574,4.8462 -3.90532,9.30902 -4.38891,9.11898 -9.88117,23.33001 -11.0588,28.61422 -0.429,1.925 -1.33925,4.85 -2.02278,6.5 -3.38278,8.16584 -5.42985,18.27645 -6.98512,34.5 -0.5009,5.225 -1.59614,13.55 -2.43388,18.5 -0.83774,4.95 -1.53913,10.59221 -1.55863,12.53824 -0.0298,2.97704 -0.78761,4.16661 -4.7776,7.5 -3.13645,2.62032 -5.76058,3.97927 -7.75,4.01346 -1.65433,0.0284 -4.39867,0.38595 -6.09853,0.79446 -2.15868,0.51878 -3.43621,0.32638 -4.23661,-0.63804 z m 58.34217,-133.98933 c 0.96581,-1.52966 2.00756,-2.52966 2.315,-2.22222 0.30745,0.30744 -0.48276,1.55899 -1.75601,2.78121 l -2.315,2.22222 1.75601,-2.78121 z m 24.94615,-29.67576 c 2.17821,-2.40688 2.67736,-2.5673 1.93025,-0.62035 -0.30027,0.78248 -1.27341,1.70184 -2.16255,2.04304 -1.32812,0.50964 -1.28666,0.25575 0.2323,-1.42269 z"
         id="path3010"
         inkscape:connector-curvature="0" />
      <path
         style="fill:#376992"
         d="m 363.42857,639.05498 c -18.34264,-2.19111 -39.53192,-8.1247 -52.70635,-14.75923 -10.24247,-5.15803 -32.45516,-20.27634 -41.79365,-28.44543 -14.07703,-12.31425 -26.41324,-27.77555 -34.38104,-43.09068 l -4.29403,-8.25366 2.83754,1.50974 c 4.83413,2.57205 11.63388,7.70156 25.49451,19.23221 7.33866,6.10504 14.91802,11.89749 16.84302,12.87213 1.925,0.97463 8.34151,4.67324 14.25891,8.21912 11.26221,6.74865 24.59476,13.30869 27.04843,13.30869 0.79113,0 3.40813,0.8515 5.81554,1.89221 11.83055,5.11431 52.114,7.76465 70.16707,4.61646 47.14475,-8.22136 85.89703,-42.0282 100.11395,-87.33773 5.6587,-18.03437 7.24459,-41.45579 4.04815,-59.78557 -3.04688,-17.4721 -11.89558,-38.3551 -21.99702,-51.91315 -9.93134,-13.32973 -24.63,-26.29062 -36.33199,-32.03656 -9.38566,-4.60858 -25.64239,-10.08198 -35.88202,-12.08095 -10.71964,-2.09267 -33.59137,-2.33148 -44.24102,-0.46192 -17.12957,3.00711 -35.87019,10.578 -51,20.60313 -9.51364,6.30381 -27.2385,23.95294 -32.89842,32.75785 -4.80276,7.47147 -4.54055,4.86753 -2.48577,24.68563 0.84834,8.18221 -2.23199,18.20641 -7.59911,24.72946 -2.18627,2.65713 -5.67191,7.18896 -7.74586,10.07074 -5.94864,8.26567 -13.18899,10.3255 -17.91715,5.09731 -1.01953,-1.12735 -3.49584,-2.88786 -5.50292,-3.91223 -3.81561,-1.94743 -7.13022,-6.45849 -8.2572,-11.23775 -0.36483,-1.5472 -2.67236,-5.3722 -5.12782,-8.5 -5.46105,-6.95636 -5.76029,-9.00515 -0.8262,-5.65679 3.42197,2.32221 8.25246,3.24452 9.65375,1.84322 0.34465,-0.34465 -0.81785,-1.61231 -2.58333,-2.81702 -2.68476,-1.83201 -3.19157,-2.79003 -3.09752,-5.85517 0.16346,-5.32722 1.91281,-6.94032 7.08081,-6.52929 5.29354,0.42102 5.73589,-1.32991 1.05674,-4.18284 -6.16655,-3.75982 -12.67717,-1.56555 -15.80662,5.32728 -1.88806,4.15858 -1.90043,4.16568 -2.0612,1.18368 -0.36181,-6.7111 0.39986,-11.27571 2.75328,-16.5 2.89801,-6.43323 6.43594,-10.44821 11.5045,-13.05577 2.71648,-1.39751 4.66152,-3.73395 7.66657,-9.2093 9.5726,-17.44178 27.58136,-37.3967 44.7491,-49.58504 10.14486,-7.20239 29.11149,-16.80762 40.86136,-20.69331 59.28025,-19.60405 125.42207,-1.36539 166.74615,45.98039 9.36316,10.72756 24.14975,32.89668 29.3999,44.07844 4.93772,10.51636 9.63431,25.26121 12.099,37.98459 2.44989,12.64695 2.40476,40.48705 -0.0867,53.5 -12.08964,63.14368 -59.88284,111.5821 -122.42407,124.0768 -9.3233,1.86265 -35.31561,3.26632 -43.15124,2.33031 z M 253.72187,456.02123 c 0.34465,-0.34465 -0.81785,-1.59651 -2.58333,-2.78192 -4.04992,-2.71926 -4.84545,-7.45596 -1.76893,-10.53248 3.08109,-3.08109 7.37208,-2.66398 10.47007,1.01777 l 2.58889,3.07672 0,-2.9998 c 0,-2.01645 -1.00864,-4.00844 -3.07692,-6.07673 -8.7903,-8.79029 -23.05447,3.16195 -16.22068,13.59164 2.2768,3.47484 8.88521,6.4105 10.5909,4.7048 z m 112.2567,143.76633 c 0.7953,-0.72022 8.52889,-3.50243 13.24691,-4.76568 0.7133,-0.19098 1.1633,-1.10968 1,-2.04156 -0.17922,-1.02272 1.09041,-2.63002 3.20309,-4.05497 5.7726,-3.89347 27.381,-25.84984 31.51692,-32.02444 2.11945,-3.16417 5.31233,-7.32804 7.09529,-9.25304 1.78296,-1.925 4.02417,-5.525 4.98045,-8 0.95629,-2.475 2.54284,-5.66454 3.52566,-7.08786 1.73266,-2.50923 4.77178,-11.07606 8.30555,-23.41214 0.98335,-3.43278 1.58127,-8.30997 1.39744,-11.39875 -0.2693,-4.52486 -0.76466,-5.72868 -3.06024,-7.43699 -3.18803,-2.37244 -10.47364,-2.69406 -20.59595,-0.9092 -3.48418,0.61437 -6.94468,0.88302 -7.69001,0.59702 -3.04423,-1.16818 -4.35975,-5.14258 -4.62669,-13.97797 -0.2741,-9.07224 -0.15878,-9.62374 6.35143,-30.37411 2.41284,-7.6906 2.84219,-9.27352 6.23852,-23 1.4289,-5.775 3.33009,-12.57181 4.22487,-15.10401 1.85269,-5.24313 1.30482,-8.91619 -1.75515,-11.76699 -2.58037,-2.40398 -6.12779,-3.12231 -10.23815,-2.07314 -1.74347,0.44501 -4.29494,1.09719 -5.66994,1.44928 -2.43735,0.62411 -2.42482,0.57515 0.5,-1.95382 1.65,-1.42669 4.10192,-2.8806 5.4487,-3.23093 1.34679,-0.35032 4.41876,-2.14072 6.8266,-3.97867 5.25995,-4.01501 8.56658,-4.27577 10.80962,-0.85246 1.21475,1.85394 2.04132,2.25966 3.23859,1.58964 1.07379,-0.60093 2.7811,-0.31245 5.14202,0.86883 1.94396,0.97266 4.88079,2.09321 6.52629,2.49012 1.64551,0.3969 3.67051,1.35945 4.5,2.13899 0.8295,0.77954 3.60778,3.33115 6.17396,5.67025 8.02491,7.3148 7.87811,13.99333 -0.56595,25.74685 -1.97991,2.75588 -3.59983,5.30893 -3.59983,5.67344 0,0.36452 -2.5875,3.42193 -5.75,6.79426 -3.1625,3.37233 -7.54029,8.47199 -9.72841,11.33258 -4.30295,5.62535 -10.06791,19.33971 -9.14291,21.75023 1.00062,2.60756 5.44004,3.45555 18.09063,3.45555 10.47438,0 13.44923,0.37341 19.6849,2.47091 5.99995,2.01822 8.13817,3.34651 11.67074,7.25 2.37872,2.6285 5.20812,5.71077 6.28754,6.84948 1.26306,1.33244 1.71593,2.71317 1.27056,3.87379 -0.45279,1.17994 -0.12005,2.1235 0.96246,2.7293 2.22078,1.24281 2.08944,3.34935 -0.7281,11.67726 -2.80909,8.30297 -5.10894,12.02592 -17.11741,27.70933 -4.95,6.46484 -9.9,12.99906 -11,14.52049 -2.11595,2.92661 -8.44399,10.19975 -17.44332,20.04851 -5.25625,5.75238 -17.66254,15.51284 -24.30415,19.12093 -3.45241,1.87554 -11.75253,2.40522 -11.75253,0.75 0,-2.0717 -3.08887,-0.89645 -4.00974,1.52563 -0.52814,1.38909 -1.7545,2.77194 -2.72525,3.07299 -0.97076,0.30106 -2.62911,1.01618 -3.68523,1.58916 -4.99514,2.71002 -25.55413,6.23794 -23.02978,3.95191 z m -59.99009,-32.07349 c -3.24216,-3.58255 -4.47076,-9.21865 -4.51602,-20.7169 -0.0387,-9.83796 0.24928,-11.78047 2.44634,-16.5 2.81582,-6.04869 3.24674,-11.99278 1.00435,-13.8538 -3.53433,-2.93323 -13.80544,0.94986 -24.10736,9.11402 -5.69924,4.51658 -8.54506,7.47679 -15.73571,16.36824 -3.08274,3.81189 -6.02019,4.46699 -9.21038,2.05404 -1.06762,-0.8075 -2.67529,-1.4825 -3.57259,-1.5 -2.20559,-0.043 -5.02497,-7.93633 -5.58331,-15.63144 -0.47574,-6.55673 -0.35901,-6.88641 7.09772,-20.04716 8.33621,-14.71298 12.15549,-21.15693 17.10109,-28.8532 2.82742,-4.4 6.82432,-10.7 8.88201,-14 2.05768,-3.3 6.44107,-9.825 9.74086,-14.5 3.29979,-4.675 7.66315,-10.975 9.69636,-14 2.0332,-3.025 5.7515,-7.6375 8.26289,-10.25 4.02034,-4.1822 5.06629,-4.75 8.75,-4.75 2.30111,0 4.18384,0.45 4.18384,1 0,0.55 0.675,1 1.5,1 4.0579,0 0.0204,15.24807 -6.85006,25.87008 -1.55465,2.40354 -6.95185,12.75354 -11.99379,23 -5.04193,10.24645 -9.95218,19.74255 -10.91165,21.10243 -0.95948,1.35987 -1.7445,3.32423 -1.7445,4.36522 0,1.73783 0.47055,1.82191 5.75,1.02749 7.35622,-1.10691 17.37031,-0.81065 21.77895,0.64433 1.89181,0.62436 4.30572,0.86031 5.36424,0.52435 1.05852,-0.33596 3.82912,-3.85603 6.15688,-7.82237 2.32775,-3.96634 4.79872,-7.88653 5.49103,-8.71153 0.69231,-0.825 3.38743,-5.55 5.98914,-10.5 9.07846,-17.27258 15.46976,-27.65601 15.46976,-25.13246 0,0.26707 -1.76788,4.00613 -3.92863,8.30902 -3.87996,7.72651 -9.32582,22.18791 -11.1763,29.67848 -0.52379,2.12027 -1.60157,5.11051 -2.39507,6.64496 -2.65471,5.13365 -4.63025,14.9339 -6.34978,31.5 -0.93981,9.05413 -4.11733,32.96674 -4.78371,36 -0.24166,1.1 -2.47828,3.68712 -4.97027,5.74915 -3.61579,2.99194 -4.90312,3.54994 -6.37392,2.7628 -1.30714,-0.69957 -2.66869,-0.55573 -4.68267,0.49468 -3.605,1.88022 -3.6851,1.87412 -5.77974,-0.44043 z"
         id="path3008"
         inkscape:connector-curvature="0" />
      <path
         style="fill:#5c5e60"
         d="m 363.42857,639.05498 c -19.01684,-2.27165 -40.36659,-8.37504 -53.86949,-15.40002 -10.17385,-5.29302 -13.31007,-7.73225 -5.63051,-4.37919 50.80533,22.18269 106.80331,17.50209 152.5,-12.74672 6.33592,-4.19405 13.84523,-10.63373 22.54634,-19.33484 8.70111,-8.70111 15.14079,-16.21042 19.33484,-22.54634 30.24881,-45.69669 34.92941,-101.69467 12.74672,-152.5 -3.97125,-9.0954 -0.11997,-3.35355 5.36591,8 5.40105,11.17799 10.05291,25.49907 12.66823,39 2.44989,12.64695 2.40476,40.48705 -0.0867,53.5 -12.08964,63.14368 -59.88284,111.5821 -122.42407,124.0768 -9.3233,1.86265 -35.31561,3.26632 -43.15124,2.33031 z m 2.55,-39.26742 c 0.7953,-0.72022 8.52889,-3.50243 13.24691,-4.76568 0.7133,-0.19098 1.1633,-1.10968 1,-2.04156 -0.17922,-1.02272 1.09041,-2.63002 3.20309,-4.05497 5.7726,-3.89347 27.381,-25.84984 31.51692,-32.02444 2.11945,-3.16417 5.31233,-7.32804 7.09529,-9.25304 1.78296,-1.925 4.02417,-5.525 4.98045,-8 0.95629,-2.475 2.54284,-5.66454 3.52566,-7.08786 1.73266,-2.50923 4.77178,-11.07606 8.30555,-23.41214 0.98335,-3.43278 1.58127,-8.30997 1.39744,-11.39875 -0.2693,-4.52486 -0.76466,-5.72868 -3.06024,-7.43699 -3.18803,-2.37244 -10.47364,-2.69406 -20.59595,-0.9092 -3.48418,0.61437 -6.94468,0.88302 -7.69001,0.59702 -3.04423,-1.16818 -4.35975,-5.14258 -4.62669,-13.97797 -0.2741,-9.07224 -0.15878,-9.62374 6.35143,-30.37411 2.41284,-7.6906 2.84219,-9.27352 6.23852,-23 1.4289,-5.775 3.33009,-12.57181 4.22487,-15.10401 1.85269,-5.24313 1.30482,-8.91619 -1.75515,-11.76699 -2.58037,-2.40398 -6.12779,-3.12231 -10.23815,-2.07314 -1.74347,0.44501 -4.29494,1.09719 -5.66994,1.44928 -2.43735,0.62411 -2.42482,0.57515 0.5,-1.95382 1.65,-1.42669 4.10192,-2.8806 5.4487,-3.23093 1.34679,-0.35032 4.41876,-2.14072 6.8266,-3.97867 5.25995,-4.01501 8.56658,-4.27577 10.80962,-0.85246 1.21475,1.85394 2.04132,2.25966 3.23859,1.58964 1.07379,-0.60093 2.7811,-0.31245 5.14202,0.86883 1.94396,0.97266 4.88079,2.09321 6.52629,2.49012 1.64551,0.3969 3.67051,1.35945 4.5,2.13899 0.8295,0.77954 3.60778,3.33115 6.17396,5.67025 8.02491,7.3148 7.87811,13.99333 -0.56595,25.74685 -1.97991,2.75588 -3.59983,5.30893 -3.59983,5.67344 0,0.36452 -2.5875,3.42193 -5.75,6.79426 -3.1625,3.37233 -7.54029,8.47199 -9.72841,11.33258 -4.30295,5.62535 -10.06791,19.33971 -9.14291,21.75023 1.00062,2.60756 5.44004,3.45555 18.09063,3.45555 10.47438,0 13.44923,0.37341 19.6849,2.47091 5.99995,2.01822 8.13817,3.34651 11.67074,7.25 2.37872,2.6285 5.20812,5.71077 6.28754,6.84948 1.26306,1.33244 1.71593,2.71317 1.27056,3.87379 -0.45279,1.17994 -0.12005,2.1235 0.96246,2.7293 2.22078,1.24281 2.08944,3.34935 -0.7281,11.67726 -2.80909,8.30297 -5.10894,12.02592 -17.11741,27.70933 -4.95,6.46484 -9.9,12.99906 -11,14.52049 -2.11595,2.92661 -8.44399,10.19975 -17.44332,20.04851 -5.25625,5.75238 -17.66254,15.51284 -24.30415,19.12093 -3.45241,1.87554 -11.75253,2.40522 -11.75253,0.75 0,-2.0717 -3.08887,-0.89645 -4.00974,1.52563 -0.52814,1.38909 -1.7545,2.77194 -2.72525,3.07299 -0.97076,0.30106 -2.62911,1.01618 -3.68523,1.58916 -4.99514,2.71002 -25.55413,6.23794 -23.02978,3.95191 z m -59.99009,-32.07349 c -3.24216,-3.58255 -4.47076,-9.21865 -4.51602,-20.7169 -0.0387,-9.83796 0.24928,-11.78047 2.44634,-16.5 2.81582,-6.04869 3.24674,-11.99278 1.00435,-13.8538 -3.53433,-2.93323 -13.80544,0.94986 -24.10736,9.11402 -5.69924,4.51658 -8.54506,7.47679 -15.73571,16.36824 -3.08274,3.81189 -6.02019,4.46699 -9.21038,2.05404 -1.06762,-0.8075 -2.67529,-1.4825 -3.57259,-1.5 -2.20559,-0.043 -5.02497,-7.93633 -5.58331,-15.63144 -0.47574,-6.55673 -0.35901,-6.88641 7.09772,-20.04716 8.33621,-14.71298 12.15549,-21.15693 17.10109,-28.8532 2.82742,-4.4 6.82432,-10.7 8.88201,-14 2.05768,-3.3 6.44107,-9.825 9.74086,-14.5 3.29979,-4.675 7.66315,-10.975 9.69636,-14 2.0332,-3.025 5.7515,-7.6375 8.26289,-10.25 4.02034,-4.1822 5.06629,-4.75 8.75,-4.75 2.30111,0 4.18384,0.45 4.18384,1 0,0.55 0.675,1 1.5,1 4.0579,0 0.0204,15.24807 -6.85006,25.87008 -1.55465,2.40354 -6.95185,12.75354 -11.99379,23 -5.04193,10.24645 -9.95218,19.74255 -10.91165,21.10243 -0.95948,1.35987 -1.7445,3.32423 -1.7445,4.36522 0,1.73783 0.47055,1.82191 5.75,1.02749 7.35622,-1.10691 17.37031,-0.81065 21.77895,0.64433 1.89181,0.62436 4.30572,0.86031 5.36424,0.52435 1.05852,-0.33596 3.82912,-3.85603 6.15688,-7.82237 2.32775,-3.96634 4.79872,-7.88653 5.49103,-8.71153 0.69231,-0.825 3.38743,-5.55 5.98914,-10.5 9.07846,-17.27258 15.46976,-27.65601 15.46976,-25.13246 0,0.26707 -1.76788,4.00613 -3.92863,8.30902 -3.87996,7.72651 -9.32582,22.18791 -11.1763,29.67848 -0.52379,2.12027 -1.60157,5.11051 -2.39507,6.64496 -2.65471,5.13365 -4.63025,14.9339 -6.34978,31.5 -0.93981,9.05413 -4.11733,32.96674 -4.78371,36 -0.24166,1.1 -2.47828,3.68712 -4.97027,5.74915 -3.61579,2.99194 -4.90312,3.54994 -6.37392,2.7628 -1.30714,-0.69957 -2.66869,-0.55573 -4.68267,0.49468 -3.605,1.88022 -3.6851,1.87412 -5.77974,-0.44043 z m -64.09463,-85.01772 c -1.11909,-0.45362 -2.60211,-1.50842 -3.29559,-2.34402 -1.07156,-1.29115 -0.73343,-1.69333 2.25199,-2.67861 4.01288,-1.32437 7.87986,-5.47293 9.5547,-10.25045 0.6591,-1.88008 2.9322,-4.56964 5.33594,-6.31353 2.84679,-2.06533 5.28498,-5.18907 7.61461,-9.75566 3.00015,-5.88092 3.43501,-7.68434 3.4918,-14.48068 0.0544,-6.50737 -0.37332,-8.64856 -2.64394,-13.23664 l -2.70879,-5.47349 5.20718,-8.0077 c 6.54261,-10.06135 22.88849,-26.65382 32.73476,-33.2286 24.32068,-16.23995 47.72093,-22.95887 76.49206,-21.96321 16.09128,0.55686 27.2311,2.777 41.07364,8.18585 7.27418,2.84233 21.69646,10.5615 21.01187,11.24609 -0.21981,0.2198 -1.68462,-0.26484 -3.25513,-1.07698 -5.56332,-2.87691 -23.46925,-8.63333 -32.08936,-10.31614 -10.71964,-2.09267 -33.59137,-2.33148 -44.24102,-0.46192 -17.12957,3.00711 -35.87019,10.578 -51,20.60313 -9.51364,6.30381 -27.2385,23.95294 -32.89842,32.75785 -4.80276,7.47147 -4.54055,4.86753 -2.48577,24.68563 0.84834,8.18221 -2.23199,18.20641 -7.59911,24.72946 -2.18627,2.65713 -5.67191,7.18896 -7.74586,10.07074 -5.00582,6.9556 -9.81728,9.33082 -14.80556,7.30888 z m 8.16958,-30.12106 c -5.00523,-3.93711 -2.19775,-11.92742 4.19083,-11.92742 3.35528,0 7.17431,3.65167 7.17431,6.85991 0,2.73141 -4.21084,7.14009 -6.81969,7.14009 -1.05082,0 -3.09628,-0.93266 -4.54545,-2.07258 z m -25.22365,-3.25013 c -2.32793,-2.00241 -2.60778,-2.81596 -2.0293,-5.89952 0.87077,-4.64159 2.61127,-5.97857 7.28009,-5.5923 3.07855,0.25471 3.97813,0.81974 4.72989,2.97089 1.22174,3.49593 -0.72648,8.21943 -4.00653,9.71392 -3.1721,1.4453 -2.82678,1.51426 -5.97415,-1.19299 z"
         id="path3006"
         inkscape:connector-curvature="0" />
      <path
         style="fill:#070708"
         d="m 382.76269,595.52069 c 1.30759,-0.76023 1.66097,-1.75626 1.23095,-3.46959 -0.36386,-1.44974 -0.16552,-2.40323 0.49991,-2.40323 1.78817,0 24.4877,-22.73758 29.67034,-29.72007 2.62057,-3.53067 6.57404,-8.60279 8.78549,-11.27139 2.21144,-2.66859 4.61947,-6.57471 5.35117,-8.68026 0.7317,-2.10556 2.3065,-5.40328 3.49955,-7.32828 1.19305,-1.925 2.69204,-5.075 3.33109,-7 4.39619,-13.24261 6.60987,-22.29183 6.689,-27.34383 0.0808,-5.16021 -0.22285,-6.11425 -2.59599,-8.15554 -4.05446,-3.48749 -11.50718,-4.77394 -17.46088,-3.01398 -12.65301,3.74031 -16.15943,1.72074 -16.47096,-9.48665 -0.27475,-9.88415 -0.44446,-9.07938 6.85373,-32.5 3.38047,-10.84827 10.44081,-38.16437 11.00272,-42.56896 0.56849,-4.45623 -3.2107,-9.44058 -7.94664,-10.48077 l -3.17233,-0.69676 3.68468,-3.37675 c 4.34583,-3.98266 9.15329,-4.62913 10.01176,-1.3463 0.42488,1.62474 1.29741,2.0068 4.36664,1.91204 2.10961,-0.0651 6.173,0.70866 9.02977,1.71954 4.05827,1.43604 5.65769,2.65801 7.31398,5.58796 1.51364,2.67759 2.79576,3.75 4.4833,3.75 3.02272,0 6.5086,4.37408 6.5086,8.16698 0,1.59349 -0.639,4.42661 -1.42001,6.29582 -2.29101,5.48315 -9.95512,16.63382 -15.21041,22.12993 -8.23406,8.61138 -12.62079,15.13115 -15.94222,23.69409 -4.85486,12.51627 -4.14061,13.1038 17.07264,14.0435 17.7426,0.78595 24.73736,2.88363 29.99485,8.99524 1.97508,2.29594 4.47517,5.0935 5.55575,6.21679 1.38857,1.44344 1.6527,2.35435 0.90072,3.10633 -0.75197,0.75197 -0.31492,1.95418 1.4904,4.09969 l 2.55438,3.03571 -2.61551,7.85796 c -2.53731,7.62302 -8.3523,16.69835 -20.41292,31.85796 -2.18784,2.75 -4.74962,6.125 -5.69286,7.5 -5.86861,8.5549 -22.97498,26.84047 -30.26427,32.35049 -11.37263,8.59662 -15.05902,10.58855 -18.39597,9.94018 -1.71301,-0.33284 -3.38226,-1.0105 -3.70943,-1.50591 -1.0173,-1.54041 -6.01289,0.35762 -7.07466,2.68796 -1.05336,2.31187 -8.62427,6.54951 -11.60723,6.49687 -1.56491,-0.0276 -1.55473,-0.12839 0.11087,-1.09677 z M 305.6447,565.39787 c -2.24081,-4.49429 -3.2049,-10.44193 -3.20141,-19.75 0.003,-8.06532 0.37501,-10.2551 2.46315,-14.5 2.86533,-5.82482 3.36575,-13.55497 1.00437,-15.51474 -2.03067,-1.68531 -10.19729,-0.68369 -15.16385,1.8598 -7.03162,3.60106 -19.03117,13.92759 -23.36761,20.10961 -2.34853,3.34805 -5.25614,6.33485 -6.46137,6.63734 -2.79545,0.70162 -9.94603,-4.00372 -10.10201,-6.64747 -0.0619,-1.04968 -0.59131,-2.48531 -1.1764,-3.1903 -1.32757,-1.59962 -1.86157,-12.39336 -0.77941,-15.75424 0.44274,-1.375 1.37947,-3.175 2.08164,-4 0.70217,-0.825 3.4037,-5.55 6.0034,-10.5 2.59971,-4.95 5.29271,-9.675 5.98446,-10.5 0.69175,-0.825 2.0531,-3.06799 3.02522,-4.98442 0.97213,-1.91643 4.2364,-7.31643 7.25396,-12 3.01755,-4.68357 7.07956,-10.99058 9.02669,-14.01558 6.04281,-9.38796 22.3459,-32.35976 25.00394,-35.23171 1.95116,-2.10819 2.8362,-2.47613 3.87743,-1.61199 1.02274,0.8488 1.8324,0.68242 3.34633,-0.68767 1.92655,-1.7435 2.04425,-1.74297 3.32954,0.0148 0.73282,1.00218 1.85066,1.50184 2.4841,1.11036 3.40416,-2.10389 -0.2514,12.28601 -4.89901,19.28464 -1.68799,2.54188 -7.13389,12.9466 -12.10198,23.1216 -4.96809,10.175 -10.34986,20.57798 -11.95947,23.11773 -4.27841,6.75074 -2.1802,9.97369 5.12849,7.87759 4.66287,-1.3373 16.36246,-1.26172 21.02706,0.13583 6.20779,1.85989 7.95742,0.77169 13.41949,-8.34639 2.72959,-4.55662 5.90513,-9.63476 7.05677,-11.28476 1.15164,-1.65 2.94861,-4.66974 3.99326,-6.71052 1.04466,-2.04079 2.07711,-3.53279 2.29435,-3.31555 0.41617,0.41617 -4.00783,14.56518 -6.41793,20.52607 -2.06023,5.09554 -3.99534,13.3791 -5.25619,22.5 -3.40418,24.62567 -4.43987,32.68628 -5.01283,39.01421 -0.5934,6.55372 -0.89721,7.25769 -4.6277,10.72294 -4.30584,3.99969 -5.449,4.40646 -7.26898,2.58648 -0.90183,-0.90183 -1.60868,-0.78514 -3.02874,0.5 -2.58658,2.34082 -5.65124,2.08892 -6.97876,-0.57363 z M 250,451.07644 c -2.17401,-2.174 -1.96433,-4.09256 0.51823,-4.74177 1.58215,-0.41374 1.93008,-1.04923 1.43261,-2.61663 -0.53613,-1.68919 -0.23057,-2.06735 1.66034,-2.05486 3.16007,0.0209 4.5038,1.02968 5.75497,4.32052 1.55956,4.10195 -0.13265,6.66417 -4.40133,6.66417 -1.86637,0 -4.10054,-0.70714 -4.96482,-1.57143 z m -25,-3 c -1.94951,-1.94951 -1.98865,-3.0957 -0.14101,-4.12969 0.78673,-0.44028 1.34923,-1.70014 1.25,-2.79969 -0.13565,-1.50308 0.51702,-2.07916 2.63005,-2.32145 4.9901,-0.57218 7.32798,3.89227 4.65435,8.888 -1.2745,2.38142 -6.16346,2.59276 -8.39339,0.36283 z"
         id="path3004"
         inkscape:connector-curvature="0" />
    </g>
  </g>
</svg>
